<mxfile host="app.diagrams.net" agent="Mozilla/5.0 (Macintosh; Intel Mac OS X 10_15_7) AppleWebKit/605.1.15 (KHTML, like Gecko) Version/18.1.1 Safari/605.1.15" version="25.0.3">
  <diagram name="ER-Diagram" id="x8T28tVlZDiwwLYlur_M">
    <mxGraphModel dx="2030" dy="1763" grid="1" gridSize="10" guides="1" tooltips="1" connect="1" arrows="1" fold="1" page="1" pageScale="1" pageWidth="1200" pageHeight="600" math="0" shadow="0">
      <root>
        <mxCell id="0" />
        <mxCell id="1" parent="0" />
        <mxCell id="6L15TeN0oQRbchtg8qIW-115" style="edgeStyle=orthogonalEdgeStyle;rounded=0;orthogonalLoop=1;jettySize=auto;html=1;exitX=1;exitY=0.5;exitDx=0;exitDy=0;entryX=0.5;entryY=1;entryDx=0;entryDy=0;endArrow=none;endFill=0;" parent="1" source="6L15TeN0oQRbchtg8qIW-1" target="6L15TeN0oQRbchtg8qIW-98" edge="1">
          <mxGeometry relative="1" as="geometry" />
        </mxCell>
        <mxCell id="6L15TeN0oQRbchtg8qIW-116" style="edgeStyle=orthogonalEdgeStyle;rounded=0;orthogonalLoop=1;jettySize=auto;html=1;exitX=1;exitY=0.5;exitDx=0;exitDy=0;entryX=0.5;entryY=1;entryDx=0;entryDy=0;endArrow=none;endFill=0;" parent="1" source="6L15TeN0oQRbchtg8qIW-1" target="6L15TeN0oQRbchtg8qIW-99" edge="1">
          <mxGeometry relative="1" as="geometry" />
        </mxCell>
        <mxCell id="6L15TeN0oQRbchtg8qIW-117" style="edgeStyle=orthogonalEdgeStyle;rounded=0;orthogonalLoop=1;jettySize=auto;html=1;exitX=1;exitY=0.5;exitDx=0;exitDy=0;entryX=0.5;entryY=1;entryDx=0;entryDy=0;endArrow=none;endFill=0;" parent="1" source="6L15TeN0oQRbchtg8qIW-1" target="6L15TeN0oQRbchtg8qIW-100" edge="1">
          <mxGeometry relative="1" as="geometry" />
        </mxCell>
        <mxCell id="6L15TeN0oQRbchtg8qIW-118" style="edgeStyle=orthogonalEdgeStyle;rounded=0;orthogonalLoop=1;jettySize=auto;html=1;exitX=1;exitY=0.5;exitDx=0;exitDy=0;entryX=0.5;entryY=1;entryDx=0;entryDy=0;endArrow=none;endFill=0;" parent="1" source="6L15TeN0oQRbchtg8qIW-1" target="6L15TeN0oQRbchtg8qIW-101" edge="1">
          <mxGeometry relative="1" as="geometry" />
        </mxCell>
        <mxCell id="6L15TeN0oQRbchtg8qIW-119" style="edgeStyle=orthogonalEdgeStyle;rounded=0;orthogonalLoop=1;jettySize=auto;html=1;exitX=1;exitY=0.5;exitDx=0;exitDy=0;entryX=0.5;entryY=1;entryDx=0;entryDy=0;endArrow=none;endFill=0;" parent="1" source="6L15TeN0oQRbchtg8qIW-1" target="6L15TeN0oQRbchtg8qIW-102" edge="1">
          <mxGeometry relative="1" as="geometry" />
        </mxCell>
        <mxCell id="6L15TeN0oQRbchtg8qIW-120" style="edgeStyle=orthogonalEdgeStyle;rounded=0;orthogonalLoop=1;jettySize=auto;html=1;exitX=1;exitY=0.5;exitDx=0;exitDy=0;entryX=0.5;entryY=1;entryDx=0;entryDy=0;endArrow=none;endFill=0;" parent="1" source="6L15TeN0oQRbchtg8qIW-1" target="6L15TeN0oQRbchtg8qIW-103" edge="1">
          <mxGeometry relative="1" as="geometry" />
        </mxCell>
        <mxCell id="6L15TeN0oQRbchtg8qIW-121" style="edgeStyle=orthogonalEdgeStyle;rounded=0;orthogonalLoop=1;jettySize=auto;html=1;exitX=1;exitY=0.5;exitDx=0;exitDy=0;entryX=0.5;entryY=1;entryDx=0;entryDy=0;endArrow=none;endFill=0;" parent="1" source="6L15TeN0oQRbchtg8qIW-1" target="6L15TeN0oQRbchtg8qIW-104" edge="1">
          <mxGeometry relative="1" as="geometry" />
        </mxCell>
        <mxCell id="6L15TeN0oQRbchtg8qIW-123" style="edgeStyle=orthogonalEdgeStyle;rounded=0;orthogonalLoop=1;jettySize=auto;html=1;exitX=1;exitY=0.5;exitDx=0;exitDy=0;entryX=0.5;entryY=1;entryDx=0;entryDy=0;endArrow=none;endFill=0;" parent="1" source="6L15TeN0oQRbchtg8qIW-1" target="6L15TeN0oQRbchtg8qIW-105" edge="1">
          <mxGeometry relative="1" as="geometry" />
        </mxCell>
        <mxCell id="6L15TeN0oQRbchtg8qIW-124" style="edgeStyle=orthogonalEdgeStyle;rounded=0;orthogonalLoop=1;jettySize=auto;html=1;exitX=1;exitY=0.5;exitDx=0;exitDy=0;endArrow=none;endFill=0;" parent="1" source="6L15TeN0oQRbchtg8qIW-1" edge="1">
          <mxGeometry relative="1" as="geometry">
            <mxPoint x="1480" y="210" as="targetPoint" />
          </mxGeometry>
        </mxCell>
        <mxCell id="6L15TeN0oQRbchtg8qIW-125" style="edgeStyle=orthogonalEdgeStyle;rounded=0;orthogonalLoop=1;jettySize=auto;html=1;exitX=1;exitY=0.5;exitDx=0;exitDy=0;entryX=0.5;entryY=0;entryDx=0;entryDy=0;endArrow=none;endFill=0;" parent="1" source="6L15TeN0oQRbchtg8qIW-1" target="6L15TeN0oQRbchtg8qIW-107" edge="1">
          <mxGeometry relative="1" as="geometry" />
        </mxCell>
        <mxCell id="6L15TeN0oQRbchtg8qIW-127" style="edgeStyle=orthogonalEdgeStyle;rounded=0;orthogonalLoop=1;jettySize=auto;html=1;exitX=1;exitY=0.5;exitDx=0;exitDy=0;entryX=0.5;entryY=0;entryDx=0;entryDy=0;endArrow=none;endFill=0;" parent="1" source="6L15TeN0oQRbchtg8qIW-1" target="6L15TeN0oQRbchtg8qIW-108" edge="1">
          <mxGeometry relative="1" as="geometry" />
        </mxCell>
        <mxCell id="6L15TeN0oQRbchtg8qIW-128" style="edgeStyle=orthogonalEdgeStyle;rounded=0;orthogonalLoop=1;jettySize=auto;html=1;exitX=1;exitY=0.5;exitDx=0;exitDy=0;entryX=0.5;entryY=0;entryDx=0;entryDy=0;endArrow=none;endFill=0;" parent="1" source="6L15TeN0oQRbchtg8qIW-1" target="6L15TeN0oQRbchtg8qIW-109" edge="1">
          <mxGeometry relative="1" as="geometry" />
        </mxCell>
        <mxCell id="6L15TeN0oQRbchtg8qIW-129" style="edgeStyle=orthogonalEdgeStyle;rounded=0;orthogonalLoop=1;jettySize=auto;html=1;exitX=1;exitY=0.5;exitDx=0;exitDy=0;entryX=0.5;entryY=0;entryDx=0;entryDy=0;endArrow=none;endFill=0;" parent="1" source="6L15TeN0oQRbchtg8qIW-1" target="6L15TeN0oQRbchtg8qIW-110" edge="1">
          <mxGeometry relative="1" as="geometry" />
        </mxCell>
        <mxCell id="6L15TeN0oQRbchtg8qIW-130" style="edgeStyle=orthogonalEdgeStyle;rounded=0;orthogonalLoop=1;jettySize=auto;html=1;exitX=1;exitY=0.5;exitDx=0;exitDy=0;entryX=0.5;entryY=0;entryDx=0;entryDy=0;endArrow=none;endFill=0;" parent="1" source="6L15TeN0oQRbchtg8qIW-1" target="6L15TeN0oQRbchtg8qIW-111" edge="1">
          <mxGeometry relative="1" as="geometry" />
        </mxCell>
        <mxCell id="6L15TeN0oQRbchtg8qIW-131" style="edgeStyle=orthogonalEdgeStyle;rounded=0;orthogonalLoop=1;jettySize=auto;html=1;exitX=1;exitY=0.5;exitDx=0;exitDy=0;entryX=0.5;entryY=0;entryDx=0;entryDy=0;endArrow=none;endFill=0;" parent="1" source="6L15TeN0oQRbchtg8qIW-1" target="6L15TeN0oQRbchtg8qIW-112" edge="1">
          <mxGeometry relative="1" as="geometry" />
        </mxCell>
        <mxCell id="6L15TeN0oQRbchtg8qIW-132" style="edgeStyle=orthogonalEdgeStyle;rounded=0;orthogonalLoop=1;jettySize=auto;html=1;exitX=1;exitY=0.5;exitDx=0;exitDy=0;entryX=0.5;entryY=0;entryDx=0;entryDy=0;endArrow=none;endFill=0;" parent="1" source="6L15TeN0oQRbchtg8qIW-1" target="6L15TeN0oQRbchtg8qIW-113" edge="1">
          <mxGeometry relative="1" as="geometry" />
        </mxCell>
        <mxCell id="6L15TeN0oQRbchtg8qIW-1" value="Users" style="rounded=0;whiteSpace=wrap;html=1;" parent="1" vertex="1">
          <mxGeometry x="600" y="180" width="120" height="60" as="geometry" />
        </mxCell>
        <mxCell id="6L15TeN0oQRbchtg8qIW-164" style="edgeStyle=orthogonalEdgeStyle;rounded=0;orthogonalLoop=1;jettySize=auto;html=1;exitX=0;exitY=0.5;exitDx=0;exitDy=0;entryX=0.5;entryY=1;entryDx=0;entryDy=0;endArrow=none;endFill=0;" parent="1" source="6L15TeN0oQRbchtg8qIW-2" target="6L15TeN0oQRbchtg8qIW-146" edge="1">
          <mxGeometry relative="1" as="geometry" />
        </mxCell>
        <mxCell id="6L15TeN0oQRbchtg8qIW-165" style="edgeStyle=orthogonalEdgeStyle;rounded=0;orthogonalLoop=1;jettySize=auto;html=1;exitX=0;exitY=0.5;exitDx=0;exitDy=0;entryX=0.5;entryY=1;entryDx=0;entryDy=0;endArrow=none;endFill=0;" parent="1" source="6L15TeN0oQRbchtg8qIW-2" target="6L15TeN0oQRbchtg8qIW-147" edge="1">
          <mxGeometry relative="1" as="geometry" />
        </mxCell>
        <mxCell id="6L15TeN0oQRbchtg8qIW-166" style="edgeStyle=orthogonalEdgeStyle;rounded=0;orthogonalLoop=1;jettySize=auto;html=1;exitX=0;exitY=0.5;exitDx=0;exitDy=0;entryX=0.5;entryY=1;entryDx=0;entryDy=0;endArrow=none;endFill=0;" parent="1" source="6L15TeN0oQRbchtg8qIW-2" target="6L15TeN0oQRbchtg8qIW-148" edge="1">
          <mxGeometry relative="1" as="geometry" />
        </mxCell>
        <mxCell id="6L15TeN0oQRbchtg8qIW-167" style="edgeStyle=orthogonalEdgeStyle;rounded=0;orthogonalLoop=1;jettySize=auto;html=1;exitX=0;exitY=0.5;exitDx=0;exitDy=0;entryX=0.5;entryY=1;entryDx=0;entryDy=0;endArrow=none;endFill=0;" parent="1" source="6L15TeN0oQRbchtg8qIW-2" target="6L15TeN0oQRbchtg8qIW-149" edge="1">
          <mxGeometry relative="1" as="geometry" />
        </mxCell>
        <mxCell id="6L15TeN0oQRbchtg8qIW-168" style="edgeStyle=orthogonalEdgeStyle;rounded=0;orthogonalLoop=1;jettySize=auto;html=1;exitX=0;exitY=0.5;exitDx=0;exitDy=0;entryX=0.5;entryY=1;entryDx=0;entryDy=0;endArrow=none;endFill=0;" parent="1" source="6L15TeN0oQRbchtg8qIW-2" target="6L15TeN0oQRbchtg8qIW-150" edge="1">
          <mxGeometry relative="1" as="geometry" />
        </mxCell>
        <mxCell id="6L15TeN0oQRbchtg8qIW-169" style="edgeStyle=orthogonalEdgeStyle;rounded=0;orthogonalLoop=1;jettySize=auto;html=1;exitX=0;exitY=0.5;exitDx=0;exitDy=0;entryX=0.5;entryY=1;entryDx=0;entryDy=0;endArrow=none;endFill=0;" parent="1" source="6L15TeN0oQRbchtg8qIW-2" target="6L15TeN0oQRbchtg8qIW-151" edge="1">
          <mxGeometry relative="1" as="geometry" />
        </mxCell>
        <mxCell id="6L15TeN0oQRbchtg8qIW-170" style="edgeStyle=orthogonalEdgeStyle;rounded=0;orthogonalLoop=1;jettySize=auto;html=1;exitX=0;exitY=0.5;exitDx=0;exitDy=0;entryX=0.5;entryY=1;entryDx=0;entryDy=0;endArrow=none;endFill=0;" parent="1" source="6L15TeN0oQRbchtg8qIW-2" target="6L15TeN0oQRbchtg8qIW-152" edge="1">
          <mxGeometry relative="1" as="geometry" />
        </mxCell>
        <mxCell id="6L15TeN0oQRbchtg8qIW-171" style="edgeStyle=orthogonalEdgeStyle;rounded=0;orthogonalLoop=1;jettySize=auto;html=1;exitX=0;exitY=0.5;exitDx=0;exitDy=0;entryX=1;entryY=0.5;entryDx=0;entryDy=0;endArrow=none;endFill=0;" parent="1" source="6L15TeN0oQRbchtg8qIW-2" target="6L15TeN0oQRbchtg8qIW-153" edge="1">
          <mxGeometry relative="1" as="geometry" />
        </mxCell>
        <mxCell id="6L15TeN0oQRbchtg8qIW-172" style="edgeStyle=orthogonalEdgeStyle;rounded=0;orthogonalLoop=1;jettySize=auto;html=1;exitX=0;exitY=0.5;exitDx=0;exitDy=0;entryX=0.5;entryY=0;entryDx=0;entryDy=0;endArrow=none;endFill=0;" parent="1" source="6L15TeN0oQRbchtg8qIW-2" target="6L15TeN0oQRbchtg8qIW-154" edge="1">
          <mxGeometry relative="1" as="geometry" />
        </mxCell>
        <mxCell id="6L15TeN0oQRbchtg8qIW-173" style="edgeStyle=orthogonalEdgeStyle;rounded=0;orthogonalLoop=1;jettySize=auto;html=1;exitX=0;exitY=0.5;exitDx=0;exitDy=0;entryX=0.5;entryY=0;entryDx=0;entryDy=0;endArrow=none;endFill=0;" parent="1" source="6L15TeN0oQRbchtg8qIW-2" target="6L15TeN0oQRbchtg8qIW-155" edge="1">
          <mxGeometry relative="1" as="geometry" />
        </mxCell>
        <mxCell id="6L15TeN0oQRbchtg8qIW-174" style="edgeStyle=orthogonalEdgeStyle;rounded=0;orthogonalLoop=1;jettySize=auto;html=1;exitX=0;exitY=0.5;exitDx=0;exitDy=0;entryX=0.5;entryY=0;entryDx=0;entryDy=0;endArrow=none;endFill=0;" parent="1" source="6L15TeN0oQRbchtg8qIW-2" target="6L15TeN0oQRbchtg8qIW-156" edge="1">
          <mxGeometry relative="1" as="geometry" />
        </mxCell>
        <mxCell id="6L15TeN0oQRbchtg8qIW-175" style="edgeStyle=orthogonalEdgeStyle;rounded=0;orthogonalLoop=1;jettySize=auto;html=1;exitX=0;exitY=0.5;exitDx=0;exitDy=0;entryX=0.5;entryY=0;entryDx=0;entryDy=0;endArrow=none;endFill=0;" parent="1" source="6L15TeN0oQRbchtg8qIW-2" target="6L15TeN0oQRbchtg8qIW-157" edge="1">
          <mxGeometry relative="1" as="geometry" />
        </mxCell>
        <mxCell id="6L15TeN0oQRbchtg8qIW-176" style="edgeStyle=orthogonalEdgeStyle;rounded=0;orthogonalLoop=1;jettySize=auto;html=1;exitX=0;exitY=0.5;exitDx=0;exitDy=0;entryX=0.5;entryY=0;entryDx=0;entryDy=0;endArrow=none;endFill=0;" parent="1" source="6L15TeN0oQRbchtg8qIW-2" target="6L15TeN0oQRbchtg8qIW-158" edge="1">
          <mxGeometry relative="1" as="geometry" />
        </mxCell>
        <mxCell id="6L15TeN0oQRbchtg8qIW-177" style="edgeStyle=orthogonalEdgeStyle;rounded=0;orthogonalLoop=1;jettySize=auto;html=1;exitX=0;exitY=0.5;exitDx=0;exitDy=0;entryX=0.5;entryY=0;entryDx=0;entryDy=0;endArrow=none;endFill=0;" parent="1" source="6L15TeN0oQRbchtg8qIW-2" target="6L15TeN0oQRbchtg8qIW-159" edge="1">
          <mxGeometry relative="1" as="geometry" />
        </mxCell>
        <mxCell id="6L15TeN0oQRbchtg8qIW-178" style="edgeStyle=orthogonalEdgeStyle;rounded=0;orthogonalLoop=1;jettySize=auto;html=1;exitX=0;exitY=0.5;exitDx=0;exitDy=0;entryX=0.5;entryY=0;entryDx=0;entryDy=0;endArrow=none;endFill=0;" parent="1" source="6L15TeN0oQRbchtg8qIW-2" target="6L15TeN0oQRbchtg8qIW-160" edge="1">
          <mxGeometry relative="1" as="geometry" />
        </mxCell>
        <mxCell id="6L15TeN0oQRbchtg8qIW-179" style="edgeStyle=orthogonalEdgeStyle;rounded=0;orthogonalLoop=1;jettySize=auto;html=1;exitX=0;exitY=0.5;exitDx=0;exitDy=0;entryX=0.5;entryY=0;entryDx=0;entryDy=0;endArrow=none;endFill=0;" parent="1" source="6L15TeN0oQRbchtg8qIW-2" target="6L15TeN0oQRbchtg8qIW-161" edge="1">
          <mxGeometry relative="1" as="geometry" />
        </mxCell>
        <mxCell id="6L15TeN0oQRbchtg8qIW-2" value="Quote Requests" style="rounded=0;whiteSpace=wrap;html=1;" parent="1" vertex="1">
          <mxGeometry x="360" y="-200" width="120" height="60" as="geometry" />
        </mxCell>
        <mxCell id="6L15TeN0oQRbchtg8qIW-190" style="edgeStyle=orthogonalEdgeStyle;rounded=0;orthogonalLoop=1;jettySize=auto;html=1;exitX=0.5;exitY=0;exitDx=0;exitDy=0;entryX=0.5;entryY=1;entryDx=0;entryDy=0;endArrow=none;endFill=0;" parent="1" source="6L15TeN0oQRbchtg8qIW-3" target="6L15TeN0oQRbchtg8qIW-180" edge="1">
          <mxGeometry relative="1" as="geometry" />
        </mxCell>
        <mxCell id="6L15TeN0oQRbchtg8qIW-191" style="edgeStyle=orthogonalEdgeStyle;rounded=0;orthogonalLoop=1;jettySize=auto;html=1;exitX=0.5;exitY=0;exitDx=0;exitDy=0;entryX=0.5;entryY=1;entryDx=0;entryDy=0;endArrow=none;endFill=0;" parent="1" source="6L15TeN0oQRbchtg8qIW-3" target="6L15TeN0oQRbchtg8qIW-181" edge="1">
          <mxGeometry relative="1" as="geometry" />
        </mxCell>
        <mxCell id="6L15TeN0oQRbchtg8qIW-192" style="edgeStyle=orthogonalEdgeStyle;rounded=0;orthogonalLoop=1;jettySize=auto;html=1;exitX=0.5;exitY=0;exitDx=0;exitDy=0;entryX=0.5;entryY=1;entryDx=0;entryDy=0;endArrow=none;endFill=0;" parent="1" source="6L15TeN0oQRbchtg8qIW-3" target="6L15TeN0oQRbchtg8qIW-182" edge="1">
          <mxGeometry relative="1" as="geometry" />
        </mxCell>
        <mxCell id="6L15TeN0oQRbchtg8qIW-193" style="edgeStyle=orthogonalEdgeStyle;rounded=0;orthogonalLoop=1;jettySize=auto;html=1;exitX=0.5;exitY=0;exitDx=0;exitDy=0;entryX=0.5;entryY=1;entryDx=0;entryDy=0;endArrow=none;endFill=0;" parent="1" source="6L15TeN0oQRbchtg8qIW-3" target="6L15TeN0oQRbchtg8qIW-183" edge="1">
          <mxGeometry relative="1" as="geometry">
            <Array as="points">
              <mxPoint x="540" y="-490" />
              <mxPoint x="470" y="-490" />
            </Array>
          </mxGeometry>
        </mxCell>
        <mxCell id="6L15TeN0oQRbchtg8qIW-194" style="edgeStyle=orthogonalEdgeStyle;rounded=0;orthogonalLoop=1;jettySize=auto;html=1;exitX=0.5;exitY=0;exitDx=0;exitDy=0;entryX=0.5;entryY=1;entryDx=0;entryDy=0;endArrow=none;endFill=0;" parent="1" source="6L15TeN0oQRbchtg8qIW-3" target="6L15TeN0oQRbchtg8qIW-184" edge="1">
          <mxGeometry relative="1" as="geometry">
            <Array as="points">
              <mxPoint x="540" y="-510" />
              <mxPoint x="530" y="-510" />
            </Array>
          </mxGeometry>
        </mxCell>
        <mxCell id="6L15TeN0oQRbchtg8qIW-195" style="edgeStyle=orthogonalEdgeStyle;rounded=0;orthogonalLoop=1;jettySize=auto;html=1;exitX=0.5;exitY=0;exitDx=0;exitDy=0;entryX=0.5;entryY=1;entryDx=0;entryDy=0;endArrow=none;endFill=0;" parent="1" source="6L15TeN0oQRbchtg8qIW-3" target="6L15TeN0oQRbchtg8qIW-185" edge="1">
          <mxGeometry relative="1" as="geometry" />
        </mxCell>
        <mxCell id="6L15TeN0oQRbchtg8qIW-196" style="edgeStyle=orthogonalEdgeStyle;rounded=0;orthogonalLoop=1;jettySize=auto;html=1;exitX=0.5;exitY=0;exitDx=0;exitDy=0;entryX=0.5;entryY=1;entryDx=0;entryDy=0;endArrow=none;endFill=0;" parent="1" source="6L15TeN0oQRbchtg8qIW-3" target="6L15TeN0oQRbchtg8qIW-186" edge="1">
          <mxGeometry relative="1" as="geometry">
            <Array as="points">
              <mxPoint x="540" y="-510" />
              <mxPoint x="630" y="-510" />
            </Array>
          </mxGeometry>
        </mxCell>
        <mxCell id="6L15TeN0oQRbchtg8qIW-3" value="Quote Responses" style="rounded=0;whiteSpace=wrap;html=1;" parent="1" vertex="1">
          <mxGeometry x="480" y="-410" width="120" height="60" as="geometry" />
        </mxCell>
        <mxCell id="6L15TeN0oQRbchtg8qIW-204" style="edgeStyle=orthogonalEdgeStyle;rounded=0;orthogonalLoop=1;jettySize=auto;html=1;exitX=0.5;exitY=0;exitDx=0;exitDy=0;entryX=0.5;entryY=1;entryDx=0;entryDy=0;endArrow=none;endFill=0;" parent="1" source="6L15TeN0oQRbchtg8qIW-4" target="6L15TeN0oQRbchtg8qIW-197" edge="1">
          <mxGeometry relative="1" as="geometry">
            <Array as="points">
              <mxPoint x="780" y="-515" />
              <mxPoint x="700" y="-515" />
            </Array>
          </mxGeometry>
        </mxCell>
        <mxCell id="6L15TeN0oQRbchtg8qIW-205" style="edgeStyle=orthogonalEdgeStyle;rounded=0;orthogonalLoop=1;jettySize=auto;html=1;exitX=0.5;exitY=0;exitDx=0;exitDy=0;entryX=0.5;entryY=1;entryDx=0;entryDy=0;endArrow=none;endFill=0;" parent="1" source="6L15TeN0oQRbchtg8qIW-4" target="6L15TeN0oQRbchtg8qIW-198" edge="1">
          <mxGeometry relative="1" as="geometry" />
        </mxCell>
        <mxCell id="6L15TeN0oQRbchtg8qIW-206" style="edgeStyle=orthogonalEdgeStyle;rounded=0;orthogonalLoop=1;jettySize=auto;html=1;exitX=0.5;exitY=0;exitDx=0;exitDy=0;entryX=0.5;entryY=1;entryDx=0;entryDy=0;endArrow=none;endFill=0;" parent="1" source="6L15TeN0oQRbchtg8qIW-4" target="6L15TeN0oQRbchtg8qIW-199" edge="1">
          <mxGeometry relative="1" as="geometry" />
        </mxCell>
        <mxCell id="6L15TeN0oQRbchtg8qIW-207" style="edgeStyle=orthogonalEdgeStyle;rounded=0;orthogonalLoop=1;jettySize=auto;html=1;exitX=0.5;exitY=0;exitDx=0;exitDy=0;entryX=0.5;entryY=1;entryDx=0;entryDy=0;endArrow=none;endFill=0;" parent="1" source="6L15TeN0oQRbchtg8qIW-4" target="6L15TeN0oQRbchtg8qIW-200" edge="1">
          <mxGeometry relative="1" as="geometry" />
        </mxCell>
        <mxCell id="6L15TeN0oQRbchtg8qIW-208" style="edgeStyle=orthogonalEdgeStyle;rounded=0;orthogonalLoop=1;jettySize=auto;html=1;exitX=0.5;exitY=0;exitDx=0;exitDy=0;entryX=0.5;entryY=1;entryDx=0;entryDy=0;endArrow=none;endFill=0;" parent="1" source="6L15TeN0oQRbchtg8qIW-4" target="6L15TeN0oQRbchtg8qIW-201" edge="1">
          <mxGeometry relative="1" as="geometry" />
        </mxCell>
        <mxCell id="6L15TeN0oQRbchtg8qIW-209" style="edgeStyle=orthogonalEdgeStyle;rounded=0;orthogonalLoop=1;jettySize=auto;html=1;exitX=0.5;exitY=0;exitDx=0;exitDy=0;entryX=0.5;entryY=1;entryDx=0;entryDy=0;endArrow=none;endFill=0;" parent="1" source="6L15TeN0oQRbchtg8qIW-4" target="6L15TeN0oQRbchtg8qIW-202" edge="1">
          <mxGeometry relative="1" as="geometry" />
        </mxCell>
        <mxCell id="6L15TeN0oQRbchtg8qIW-210" style="edgeStyle=orthogonalEdgeStyle;rounded=0;orthogonalLoop=1;jettySize=auto;html=1;exitX=0.5;exitY=0;exitDx=0;exitDy=0;entryX=0.5;entryY=1;entryDx=0;entryDy=0;endArrow=none;endFill=0;" parent="1" source="6L15TeN0oQRbchtg8qIW-4" target="6L15TeN0oQRbchtg8qIW-203" edge="1">
          <mxGeometry relative="1" as="geometry" />
        </mxCell>
        <mxCell id="6L15TeN0oQRbchtg8qIW-4" value="Quote Response Revisions" style="rounded=0;whiteSpace=wrap;html=1;" parent="1" vertex="1">
          <mxGeometry x="720" y="-410" width="120" height="60" as="geometry" />
        </mxCell>
        <mxCell id="6L15TeN0oQRbchtg8qIW-215" style="edgeStyle=orthogonalEdgeStyle;rounded=0;orthogonalLoop=1;jettySize=auto;html=1;exitX=1;exitY=0.5;exitDx=0;exitDy=0;entryX=0.5;entryY=1;entryDx=0;entryDy=0;endArrow=none;endFill=0;" parent="1" source="6L15TeN0oQRbchtg8qIW-5" target="6L15TeN0oQRbchtg8qIW-212" edge="1">
          <mxGeometry relative="1" as="geometry" />
        </mxCell>
        <mxCell id="6L15TeN0oQRbchtg8qIW-216" style="edgeStyle=orthogonalEdgeStyle;rounded=0;orthogonalLoop=1;jettySize=auto;html=1;exitX=1;exitY=0.5;exitDx=0;exitDy=0;entryX=0.5;entryY=0;entryDx=0;entryDy=0;endArrow=none;endFill=0;" parent="1" source="6L15TeN0oQRbchtg8qIW-5" target="6L15TeN0oQRbchtg8qIW-213" edge="1">
          <mxGeometry relative="1" as="geometry" />
        </mxCell>
        <mxCell id="6L15TeN0oQRbchtg8qIW-217" style="edgeStyle=orthogonalEdgeStyle;rounded=0;orthogonalLoop=1;jettySize=auto;html=1;exitX=1;exitY=0.5;exitDx=0;exitDy=0;entryX=0.5;entryY=1;entryDx=0;entryDy=0;endArrow=none;endFill=0;" parent="1" source="6L15TeN0oQRbchtg8qIW-5" target="6L15TeN0oQRbchtg8qIW-211" edge="1">
          <mxGeometry relative="1" as="geometry" />
        </mxCell>
        <mxCell id="6L15TeN0oQRbchtg8qIW-218" style="edgeStyle=orthogonalEdgeStyle;rounded=0;orthogonalLoop=1;jettySize=auto;html=1;exitX=1;exitY=0.5;exitDx=0;exitDy=0;entryX=0.5;entryY=0;entryDx=0;entryDy=0;endArrow=none;endFill=0;" parent="1" source="6L15TeN0oQRbchtg8qIW-5" target="6L15TeN0oQRbchtg8qIW-214" edge="1">
          <mxGeometry relative="1" as="geometry" />
        </mxCell>
        <mxCell id="6L15TeN0oQRbchtg8qIW-5" value="Quote Request Revisions" style="rounded=0;whiteSpace=wrap;html=1;" parent="1" vertex="1">
          <mxGeometry x="870" y="-200" width="120" height="60" as="geometry" />
        </mxCell>
        <mxCell id="6L15TeN0oQRbchtg8qIW-234" style="edgeStyle=orthogonalEdgeStyle;rounded=0;orthogonalLoop=1;jettySize=auto;html=1;exitX=0;exitY=0.5;exitDx=0;exitDy=0;entryX=0.5;entryY=1;entryDx=0;entryDy=0;endArrow=none;endFill=0;" parent="1" source="6L15TeN0oQRbchtg8qIW-6" target="6L15TeN0oQRbchtg8qIW-229" edge="1">
          <mxGeometry relative="1" as="geometry" />
        </mxCell>
        <mxCell id="6L15TeN0oQRbchtg8qIW-235" style="edgeStyle=orthogonalEdgeStyle;rounded=0;orthogonalLoop=1;jettySize=auto;html=1;exitX=0;exitY=0.5;exitDx=0;exitDy=0;entryX=0.5;entryY=1;entryDx=0;entryDy=0;endArrow=none;endFill=0;" parent="1" source="6L15TeN0oQRbchtg8qIW-6" target="6L15TeN0oQRbchtg8qIW-230" edge="1">
          <mxGeometry relative="1" as="geometry" />
        </mxCell>
        <mxCell id="6L15TeN0oQRbchtg8qIW-236" style="edgeStyle=orthogonalEdgeStyle;rounded=0;orthogonalLoop=1;jettySize=auto;html=1;exitX=0;exitY=0.5;exitDx=0;exitDy=0;entryX=1;entryY=0.5;entryDx=0;entryDy=0;endArrow=none;endFill=0;" parent="1" source="6L15TeN0oQRbchtg8qIW-6" target="6L15TeN0oQRbchtg8qIW-231" edge="1">
          <mxGeometry relative="1" as="geometry" />
        </mxCell>
        <mxCell id="6L15TeN0oQRbchtg8qIW-237" style="edgeStyle=orthogonalEdgeStyle;rounded=0;orthogonalLoop=1;jettySize=auto;html=1;exitX=0;exitY=0.5;exitDx=0;exitDy=0;entryX=0.5;entryY=0;entryDx=0;entryDy=0;endArrow=none;endFill=0;" parent="1" source="6L15TeN0oQRbchtg8qIW-6" target="6L15TeN0oQRbchtg8qIW-232" edge="1">
          <mxGeometry relative="1" as="geometry" />
        </mxCell>
        <mxCell id="6L15TeN0oQRbchtg8qIW-238" style="edgeStyle=orthogonalEdgeStyle;rounded=0;orthogonalLoop=1;jettySize=auto;html=1;exitX=0;exitY=0.5;exitDx=0;exitDy=0;entryX=0.5;entryY=0;entryDx=0;entryDy=0;endArrow=none;endFill=0;" parent="1" source="6L15TeN0oQRbchtg8qIW-6" target="6L15TeN0oQRbchtg8qIW-233" edge="1">
          <mxGeometry relative="1" as="geometry" />
        </mxCell>
        <mxCell id="6L15TeN0oQRbchtg8qIW-6" value="Bill Requests" style="rounded=0;whiteSpace=wrap;html=1;" parent="1" vertex="1">
          <mxGeometry x="360" y="530" width="120" height="60" as="geometry" />
        </mxCell>
        <mxCell id="6L15TeN0oQRbchtg8qIW-244" style="edgeStyle=orthogonalEdgeStyle;rounded=0;orthogonalLoop=1;jettySize=auto;html=1;exitX=0.5;exitY=1;exitDx=0;exitDy=0;entryX=0.5;entryY=0;entryDx=0;entryDy=0;endArrow=none;endFill=0;" parent="1" source="6L15TeN0oQRbchtg8qIW-7" target="6L15TeN0oQRbchtg8qIW-239" edge="1">
          <mxGeometry relative="1" as="geometry" />
        </mxCell>
        <mxCell id="6L15TeN0oQRbchtg8qIW-245" style="edgeStyle=orthogonalEdgeStyle;rounded=0;orthogonalLoop=1;jettySize=auto;html=1;exitX=0.5;exitY=1;exitDx=0;exitDy=0;entryX=0.5;entryY=0;entryDx=0;entryDy=0;endArrow=none;endFill=0;" parent="1" source="6L15TeN0oQRbchtg8qIW-7" target="6L15TeN0oQRbchtg8qIW-240" edge="1">
          <mxGeometry relative="1" as="geometry" />
        </mxCell>
        <mxCell id="6L15TeN0oQRbchtg8qIW-246" style="edgeStyle=orthogonalEdgeStyle;rounded=0;orthogonalLoop=1;jettySize=auto;html=1;exitX=0.5;exitY=1;exitDx=0;exitDy=0;entryX=0.5;entryY=0;entryDx=0;entryDy=0;endArrow=none;endFill=0;" parent="1" source="6L15TeN0oQRbchtg8qIW-7" target="6L15TeN0oQRbchtg8qIW-241" edge="1">
          <mxGeometry relative="1" as="geometry" />
        </mxCell>
        <mxCell id="6L15TeN0oQRbchtg8qIW-247" style="edgeStyle=orthogonalEdgeStyle;rounded=0;orthogonalLoop=1;jettySize=auto;html=1;exitX=0.5;exitY=1;exitDx=0;exitDy=0;entryX=0.5;entryY=0;entryDx=0;entryDy=0;endArrow=none;endFill=0;" parent="1" source="6L15TeN0oQRbchtg8qIW-7" target="6L15TeN0oQRbchtg8qIW-242" edge="1">
          <mxGeometry relative="1" as="geometry" />
        </mxCell>
        <mxCell id="6L15TeN0oQRbchtg8qIW-248" style="edgeStyle=orthogonalEdgeStyle;rounded=0;orthogonalLoop=1;jettySize=auto;html=1;exitX=0.5;exitY=1;exitDx=0;exitDy=0;entryX=0.5;entryY=0;entryDx=0;entryDy=0;endArrow=none;endFill=0;" parent="1" source="6L15TeN0oQRbchtg8qIW-7" target="6L15TeN0oQRbchtg8qIW-243" edge="1">
          <mxGeometry relative="1" as="geometry" />
        </mxCell>
        <mxCell id="6L15TeN0oQRbchtg8qIW-7" value="Bill Responses" style="rounded=0;whiteSpace=wrap;html=1;" parent="1" vertex="1">
          <mxGeometry x="480" y="760" width="120" height="60" as="geometry" />
        </mxCell>
        <mxCell id="6L15TeN0oQRbchtg8qIW-254" style="edgeStyle=orthogonalEdgeStyle;rounded=0;orthogonalLoop=1;jettySize=auto;html=1;exitX=0.5;exitY=1;exitDx=0;exitDy=0;entryX=0.5;entryY=0;entryDx=0;entryDy=0;endArrow=none;endFill=0;" parent="1" source="6L15TeN0oQRbchtg8qIW-8" target="6L15TeN0oQRbchtg8qIW-253" edge="1">
          <mxGeometry relative="1" as="geometry" />
        </mxCell>
        <mxCell id="6L15TeN0oQRbchtg8qIW-255" style="edgeStyle=orthogonalEdgeStyle;rounded=0;orthogonalLoop=1;jettySize=auto;html=1;exitX=0.5;exitY=1;exitDx=0;exitDy=0;entryX=0.5;entryY=0;entryDx=0;entryDy=0;endArrow=none;endFill=0;" parent="1" source="6L15TeN0oQRbchtg8qIW-8" target="6L15TeN0oQRbchtg8qIW-252" edge="1">
          <mxGeometry relative="1" as="geometry" />
        </mxCell>
        <mxCell id="6L15TeN0oQRbchtg8qIW-256" style="edgeStyle=orthogonalEdgeStyle;rounded=0;orthogonalLoop=1;jettySize=auto;html=1;exitX=0.5;exitY=1;exitDx=0;exitDy=0;entryX=0.5;entryY=0;entryDx=0;entryDy=0;endArrow=none;endFill=0;" parent="1" source="6L15TeN0oQRbchtg8qIW-8" target="6L15TeN0oQRbchtg8qIW-251" edge="1">
          <mxGeometry relative="1" as="geometry" />
        </mxCell>
        <mxCell id="6L15TeN0oQRbchtg8qIW-257" style="edgeStyle=orthogonalEdgeStyle;rounded=0;orthogonalLoop=1;jettySize=auto;html=1;exitX=0.5;exitY=1;exitDx=0;exitDy=0;entryX=0.5;entryY=0;entryDx=0;entryDy=0;endArrow=none;endFill=0;" parent="1" source="6L15TeN0oQRbchtg8qIW-8" target="6L15TeN0oQRbchtg8qIW-250" edge="1">
          <mxGeometry relative="1" as="geometry" />
        </mxCell>
        <mxCell id="6L15TeN0oQRbchtg8qIW-258" style="edgeStyle=orthogonalEdgeStyle;rounded=0;orthogonalLoop=1;jettySize=auto;html=1;exitX=0.5;exitY=1;exitDx=0;exitDy=0;entryX=0.5;entryY=0;entryDx=0;entryDy=0;endArrow=none;endFill=0;" parent="1" source="6L15TeN0oQRbchtg8qIW-8" target="6L15TeN0oQRbchtg8qIW-249" edge="1">
          <mxGeometry relative="1" as="geometry" />
        </mxCell>
        <mxCell id="6L15TeN0oQRbchtg8qIW-8" value="Bill Response Revisions" style="rounded=0;whiteSpace=wrap;html=1;" parent="1" vertex="1">
          <mxGeometry x="720" y="760" width="120" height="60" as="geometry" />
        </mxCell>
        <mxCell id="6L15TeN0oQRbchtg8qIW-264" style="edgeStyle=orthogonalEdgeStyle;rounded=0;orthogonalLoop=1;jettySize=auto;html=1;exitX=1;exitY=0.5;exitDx=0;exitDy=0;entryX=0.5;entryY=1;entryDx=0;entryDy=0;endArrow=none;endFill=0;" parent="1" source="6L15TeN0oQRbchtg8qIW-9" target="6L15TeN0oQRbchtg8qIW-259" edge="1">
          <mxGeometry relative="1" as="geometry" />
        </mxCell>
        <mxCell id="6L15TeN0oQRbchtg8qIW-265" style="edgeStyle=orthogonalEdgeStyle;rounded=0;orthogonalLoop=1;jettySize=auto;html=1;exitX=1;exitY=0.5;exitDx=0;exitDy=0;entryX=0.5;entryY=1;entryDx=0;entryDy=0;endArrow=none;endFill=0;" parent="1" source="6L15TeN0oQRbchtg8qIW-9" target="6L15TeN0oQRbchtg8qIW-260" edge="1">
          <mxGeometry relative="1" as="geometry" />
        </mxCell>
        <mxCell id="6L15TeN0oQRbchtg8qIW-266" style="edgeStyle=orthogonalEdgeStyle;rounded=0;orthogonalLoop=1;jettySize=auto;html=1;exitX=1;exitY=0.5;exitDx=0;exitDy=0;entryX=0.5;entryY=0;entryDx=0;entryDy=0;endArrow=none;endFill=0;" parent="1" source="6L15TeN0oQRbchtg8qIW-9" target="6L15TeN0oQRbchtg8qIW-261" edge="1">
          <mxGeometry relative="1" as="geometry" />
        </mxCell>
        <mxCell id="6L15TeN0oQRbchtg8qIW-267" style="edgeStyle=orthogonalEdgeStyle;rounded=0;orthogonalLoop=1;jettySize=auto;html=1;exitX=1;exitY=0.5;exitDx=0;exitDy=0;entryX=0.5;entryY=0;entryDx=0;entryDy=0;endArrow=none;endFill=0;" parent="1" source="6L15TeN0oQRbchtg8qIW-9" target="6L15TeN0oQRbchtg8qIW-263" edge="1">
          <mxGeometry relative="1" as="geometry" />
        </mxCell>
        <mxCell id="6L15TeN0oQRbchtg8qIW-9" value="Bill Request Revisions" style="rounded=0;whiteSpace=wrap;html=1;" parent="1" vertex="1">
          <mxGeometry x="870" y="530" width="120" height="60" as="geometry" />
        </mxCell>
        <mxCell id="6L15TeN0oQRbchtg8qIW-140" style="edgeStyle=orthogonalEdgeStyle;rounded=0;orthogonalLoop=1;jettySize=auto;html=1;exitX=0;exitY=0.5;exitDx=0;exitDy=0;entryX=0.5;entryY=1;entryDx=0;entryDy=0;endArrow=none;endFill=0;" parent="1" source="6L15TeN0oQRbchtg8qIW-10" target="6L15TeN0oQRbchtg8qIW-133" edge="1">
          <mxGeometry relative="1" as="geometry" />
        </mxCell>
        <mxCell id="6L15TeN0oQRbchtg8qIW-141" style="edgeStyle=orthogonalEdgeStyle;rounded=0;orthogonalLoop=1;jettySize=auto;html=1;exitX=0;exitY=0.5;exitDx=0;exitDy=0;entryX=0.5;entryY=1;entryDx=0;entryDy=0;endArrow=none;endFill=0;" parent="1" source="6L15TeN0oQRbchtg8qIW-10" target="6L15TeN0oQRbchtg8qIW-135" edge="1">
          <mxGeometry relative="1" as="geometry" />
        </mxCell>
        <mxCell id="6L15TeN0oQRbchtg8qIW-142" style="edgeStyle=orthogonalEdgeStyle;rounded=0;orthogonalLoop=1;jettySize=auto;html=1;exitX=0;exitY=0.5;exitDx=0;exitDy=0;entryX=0.5;entryY=1;entryDx=0;entryDy=0;endArrow=none;endFill=0;" parent="1" source="6L15TeN0oQRbchtg8qIW-10" target="6L15TeN0oQRbchtg8qIW-136" edge="1">
          <mxGeometry relative="1" as="geometry" />
        </mxCell>
        <mxCell id="6L15TeN0oQRbchtg8qIW-143" style="edgeStyle=orthogonalEdgeStyle;rounded=0;orthogonalLoop=1;jettySize=auto;html=1;exitX=0;exitY=0.5;exitDx=0;exitDy=0;entryX=0.5;entryY=0;entryDx=0;entryDy=0;endArrow=none;endFill=0;" parent="1" source="6L15TeN0oQRbchtg8qIW-10" target="6L15TeN0oQRbchtg8qIW-137" edge="1">
          <mxGeometry relative="1" as="geometry" />
        </mxCell>
        <mxCell id="6L15TeN0oQRbchtg8qIW-144" style="edgeStyle=orthogonalEdgeStyle;rounded=0;orthogonalLoop=1;jettySize=auto;html=1;exitX=0;exitY=0.5;exitDx=0;exitDy=0;entryX=0.5;entryY=0;entryDx=0;entryDy=0;endArrow=none;endFill=0;" parent="1" source="6L15TeN0oQRbchtg8qIW-10" target="6L15TeN0oQRbchtg8qIW-138" edge="1">
          <mxGeometry relative="1" as="geometry" />
        </mxCell>
        <mxCell id="6L15TeN0oQRbchtg8qIW-145" style="edgeStyle=orthogonalEdgeStyle;rounded=0;orthogonalLoop=1;jettySize=auto;html=1;exitX=0;exitY=0.5;exitDx=0;exitDy=0;entryX=0.5;entryY=0;entryDx=0;entryDy=0;endArrow=none;endFill=0;" parent="1" source="6L15TeN0oQRbchtg8qIW-10" target="6L15TeN0oQRbchtg8qIW-139" edge="1">
          <mxGeometry relative="1" as="geometry" />
        </mxCell>
        <mxCell id="6L15TeN0oQRbchtg8qIW-10" value="Work Orders" style="rounded=0;whiteSpace=wrap;html=1;" parent="1" vertex="1">
          <mxGeometry x="240" y="180" width="120" height="60" as="geometry" />
        </mxCell>
        <mxCell id="6L15TeN0oQRbchtg8qIW-29" style="edgeStyle=orthogonalEdgeStyle;rounded=0;orthogonalLoop=1;jettySize=auto;html=1;exitX=1;exitY=0.5;exitDx=0;exitDy=0;entryX=0;entryY=0.5;entryDx=0;entryDy=0;endArrow=ERone;endFill=0;" parent="1" source="6L15TeN0oQRbchtg8qIW-13" target="6L15TeN0oQRbchtg8qIW-1" edge="1">
          <mxGeometry relative="1" as="geometry" />
        </mxCell>
        <mxCell id="6L15TeN0oQRbchtg8qIW-30" style="edgeStyle=orthogonalEdgeStyle;rounded=0;orthogonalLoop=1;jettySize=auto;html=1;exitX=0;exitY=0.5;exitDx=0;exitDy=0;entryX=1;entryY=0.5;entryDx=0;entryDy=0;endArrow=ERzeroToMany;endFill=0;" parent="1" source="6L15TeN0oQRbchtg8qIW-13" target="6L15TeN0oQRbchtg8qIW-10" edge="1">
          <mxGeometry relative="1" as="geometry" />
        </mxCell>
        <mxCell id="6L15TeN0oQRbchtg8qIW-13" value="Associate" style="rhombus;whiteSpace=wrap;html=1;" parent="1" vertex="1">
          <mxGeometry x="430" y="170" width="80" height="80" as="geometry" />
        </mxCell>
        <mxCell id="6L15TeN0oQRbchtg8qIW-14" value="Associate" style="rhombus;whiteSpace=wrap;html=1;rotation=-45;" parent="1" vertex="1">
          <mxGeometry x="490" y="430" width="80" height="80" as="geometry" />
        </mxCell>
        <mxCell id="6L15TeN0oQRbchtg8qIW-47" style="edgeStyle=orthogonalEdgeStyle;rounded=0;orthogonalLoop=1;jettySize=auto;html=1;exitX=0;exitY=0.5;exitDx=0;exitDy=0;entryX=0.75;entryY=0;entryDx=0;entryDy=0;endArrow=ERzeroToMany;endFill=0;" parent="1" source="6L15TeN0oQRbchtg8qIW-17" target="6L15TeN0oQRbchtg8qIW-7" edge="1">
          <mxGeometry relative="1" as="geometry">
            <Array as="points">
              <mxPoint x="580" y="730" />
              <mxPoint x="570" y="730" />
            </Array>
          </mxGeometry>
        </mxCell>
        <mxCell id="6L15TeN0oQRbchtg8qIW-17" value="Associate" style="rhombus;whiteSpace=wrap;html=1;rotation=-75;" parent="1" vertex="1">
          <mxGeometry x="550" y="640" width="80" height="80" as="geometry" />
        </mxCell>
        <mxCell id="6L15TeN0oQRbchtg8qIW-46" style="edgeStyle=orthogonalEdgeStyle;rounded=0;orthogonalLoop=1;jettySize=auto;html=1;exitX=1;exitY=0.5;exitDx=0;exitDy=0;entryX=0.25;entryY=0;entryDx=0;entryDy=0;endArrow=ERzeroToMany;endFill=0;" parent="1" source="6L15TeN0oQRbchtg8qIW-18" target="6L15TeN0oQRbchtg8qIW-8" edge="1">
          <mxGeometry relative="1" as="geometry">
            <Array as="points">
              <mxPoint x="740" y="730" />
              <mxPoint x="750" y="730" />
            </Array>
          </mxGeometry>
        </mxCell>
        <mxCell id="6L15TeN0oQRbchtg8qIW-18" value="Associate" style="rhombus;whiteSpace=wrap;html=1;rotation=75;" parent="1" vertex="1">
          <mxGeometry x="690" y="640" width="80" height="80" as="geometry" />
        </mxCell>
        <mxCell id="6L15TeN0oQRbchtg8qIW-19" value="Associate" style="rhombus;whiteSpace=wrap;html=1;rotation=45;" parent="1" vertex="1">
          <mxGeometry x="810" y="420" width="80" height="80" as="geometry" />
        </mxCell>
        <mxCell id="6L15TeN0oQRbchtg8qIW-25" style="edgeStyle=orthogonalEdgeStyle;rounded=0;orthogonalLoop=1;jettySize=auto;html=1;exitX=0;exitY=0.5;exitDx=0;exitDy=0;entryX=0.75;entryY=1;entryDx=0;entryDy=0;endArrow=ERzeroToMany;endFill=0;" parent="1" source="6L15TeN0oQRbchtg8qIW-20" target="6L15TeN0oQRbchtg8qIW-2" edge="1">
          <mxGeometry relative="1" as="geometry" />
        </mxCell>
        <mxCell id="6L15TeN0oQRbchtg8qIW-20" value="Associate" style="rhombus;whiteSpace=wrap;html=1;rotation=45;" parent="1" vertex="1">
          <mxGeometry x="510" y="-120" width="80" height="80" as="geometry" />
        </mxCell>
        <mxCell id="6L15TeN0oQRbchtg8qIW-21" value="Associate" style="rhombus;whiteSpace=wrap;html=1;rotation=75;" parent="1" vertex="1">
          <mxGeometry x="560" y="-320" width="80" height="80" as="geometry" />
        </mxCell>
        <mxCell id="CD9k-4Juetm0KsUpOOmQ-18" style="edgeStyle=orthogonalEdgeStyle;rounded=0;orthogonalLoop=1;jettySize=auto;html=1;exitX=1;exitY=0.5;exitDx=0;exitDy=0;entryX=0.25;entryY=1;entryDx=0;entryDy=0;endArrow=ERzeroToMany;endFill=0;" edge="1" parent="1" source="6L15TeN0oQRbchtg8qIW-22" target="6L15TeN0oQRbchtg8qIW-4">
          <mxGeometry relative="1" as="geometry" />
        </mxCell>
        <mxCell id="6L15TeN0oQRbchtg8qIW-22" value="Associate" style="rhombus;whiteSpace=wrap;html=1;rotation=-75;" parent="1" vertex="1">
          <mxGeometry x="680" y="-320" width="80" height="80" as="geometry" />
        </mxCell>
        <mxCell id="6L15TeN0oQRbchtg8qIW-23" value="Associate" style="rhombus;whiteSpace=wrap;html=1;rotation=-45;" parent="1" vertex="1">
          <mxGeometry x="810" y="-100" width="80" height="80" as="geometry" />
        </mxCell>
        <mxCell id="6L15TeN0oQRbchtg8qIW-73" style="edgeStyle=orthogonalEdgeStyle;rounded=0;orthogonalLoop=1;jettySize=auto;html=1;exitX=1;exitY=0.5;exitDx=0;exitDy=0;entryX=0;entryY=0.5;entryDx=0;entryDy=0;endArrow=ERzeroToMany;endFill=0;" parent="1" source="6L15TeN0oQRbchtg8qIW-64" target="6L15TeN0oQRbchtg8qIW-5" edge="1">
          <mxGeometry relative="1" as="geometry" />
        </mxCell>
        <mxCell id="6L15TeN0oQRbchtg8qIW-74" style="edgeStyle=orthogonalEdgeStyle;rounded=0;orthogonalLoop=1;jettySize=auto;html=1;exitX=0;exitY=0.5;exitDx=0;exitDy=0;entryX=1;entryY=0.5;entryDx=0;entryDy=0;endArrow=ERone;endFill=0;" parent="1" source="6L15TeN0oQRbchtg8qIW-64" target="6L15TeN0oQRbchtg8qIW-2" edge="1">
          <mxGeometry relative="1" as="geometry" />
        </mxCell>
        <mxCell id="6L15TeN0oQRbchtg8qIW-64" value="Revise" style="rhombus;whiteSpace=wrap;html=1;" parent="1" vertex="1">
          <mxGeometry x="620" y="-210" width="80" height="80" as="geometry" />
        </mxCell>
        <mxCell id="6L15TeN0oQRbchtg8qIW-75" style="edgeStyle=orthogonalEdgeStyle;rounded=0;orthogonalLoop=1;jettySize=auto;html=1;exitX=1;exitY=0.5;exitDx=0;exitDy=0;entryX=0;entryY=0.5;entryDx=0;entryDy=0;endArrow=ERzeroToMany;endFill=0;" parent="1" source="6L15TeN0oQRbchtg8qIW-65" target="6L15TeN0oQRbchtg8qIW-8" edge="1">
          <mxGeometry relative="1" as="geometry" />
        </mxCell>
        <mxCell id="6L15TeN0oQRbchtg8qIW-76" style="edgeStyle=orthogonalEdgeStyle;rounded=0;orthogonalLoop=1;jettySize=auto;html=1;exitX=0;exitY=0.5;exitDx=0;exitDy=0;entryX=1;entryY=0.5;entryDx=0;entryDy=0;endArrow=ERone;endFill=0;" parent="1" source="6L15TeN0oQRbchtg8qIW-65" target="6L15TeN0oQRbchtg8qIW-7" edge="1">
          <mxGeometry relative="1" as="geometry" />
        </mxCell>
        <mxCell id="6L15TeN0oQRbchtg8qIW-65" value="Revise" style="rhombus;whiteSpace=wrap;html=1;" parent="1" vertex="1">
          <mxGeometry x="620" y="750" width="80" height="80" as="geometry" />
        </mxCell>
        <mxCell id="6L15TeN0oQRbchtg8qIW-77" style="edgeStyle=orthogonalEdgeStyle;rounded=0;orthogonalLoop=1;jettySize=auto;html=1;exitX=0;exitY=0.5;exitDx=0;exitDy=0;entryX=1;entryY=0.5;entryDx=0;entryDy=0;endArrow=ERone;endFill=0;" parent="1" source="6L15TeN0oQRbchtg8qIW-66" target="6L15TeN0oQRbchtg8qIW-6" edge="1">
          <mxGeometry relative="1" as="geometry" />
        </mxCell>
        <mxCell id="6L15TeN0oQRbchtg8qIW-78" style="edgeStyle=orthogonalEdgeStyle;rounded=0;orthogonalLoop=1;jettySize=auto;html=1;exitX=1;exitY=0.5;exitDx=0;exitDy=0;entryX=0;entryY=0.5;entryDx=0;entryDy=0;endArrow=ERzeroToMany;endFill=0;" parent="1" source="6L15TeN0oQRbchtg8qIW-66" target="6L15TeN0oQRbchtg8qIW-9" edge="1">
          <mxGeometry relative="1" as="geometry" />
        </mxCell>
        <mxCell id="6L15TeN0oQRbchtg8qIW-66" value="Revise" style="rhombus;whiteSpace=wrap;html=1;" parent="1" vertex="1">
          <mxGeometry x="620" y="520" width="80" height="80" as="geometry" />
        </mxCell>
        <mxCell id="6L15TeN0oQRbchtg8qIW-71" style="edgeStyle=orthogonalEdgeStyle;rounded=0;orthogonalLoop=1;jettySize=auto;html=1;exitX=0;exitY=0.5;exitDx=0;exitDy=0;entryX=1;entryY=0.5;entryDx=0;entryDy=0;endArrow=ERone;endFill=0;" parent="1" source="6L15TeN0oQRbchtg8qIW-67" target="6L15TeN0oQRbchtg8qIW-3" edge="1">
          <mxGeometry relative="1" as="geometry" />
        </mxCell>
        <mxCell id="6L15TeN0oQRbchtg8qIW-72" style="edgeStyle=orthogonalEdgeStyle;rounded=0;orthogonalLoop=1;jettySize=auto;html=1;exitX=1;exitY=0.5;exitDx=0;exitDy=0;entryX=0;entryY=0.5;entryDx=0;entryDy=0;endArrow=ERzeroToMany;endFill=0;" parent="1" source="6L15TeN0oQRbchtg8qIW-67" target="6L15TeN0oQRbchtg8qIW-4" edge="1">
          <mxGeometry relative="1" as="geometry" />
        </mxCell>
        <mxCell id="6L15TeN0oQRbchtg8qIW-67" value="Revise" style="rhombus;whiteSpace=wrap;html=1;" parent="1" vertex="1">
          <mxGeometry x="620" y="-420" width="80" height="80" as="geometry" />
        </mxCell>
        <mxCell id="6L15TeN0oQRbchtg8qIW-89" style="edgeStyle=orthogonalEdgeStyle;rounded=0;orthogonalLoop=1;jettySize=auto;html=1;exitX=0;exitY=0.5;exitDx=0;exitDy=0;entryX=0.5;entryY=1;entryDx=0;entryDy=0;endArrow=ERone;endFill=0;" parent="1" source="6L15TeN0oQRbchtg8qIW-87" target="6L15TeN0oQRbchtg8qIW-6" edge="1">
          <mxGeometry relative="1" as="geometry" />
        </mxCell>
        <mxCell id="6L15TeN0oQRbchtg8qIW-90" style="edgeStyle=orthogonalEdgeStyle;rounded=0;orthogonalLoop=1;jettySize=auto;html=1;exitX=1;exitY=0.5;exitDx=0;exitDy=0;entryX=0.25;entryY=0;entryDx=0;entryDy=0;endArrow=ERzeroToOne;endFill=0;" parent="1" source="6L15TeN0oQRbchtg8qIW-87" target="6L15TeN0oQRbchtg8qIW-7" edge="1">
          <mxGeometry relative="1" as="geometry">
            <Array as="points">
              <mxPoint x="470" y="730" />
              <mxPoint x="510" y="730" />
            </Array>
          </mxGeometry>
        </mxCell>
        <mxCell id="6L15TeN0oQRbchtg8qIW-87" value="Respond" style="rhombus;whiteSpace=wrap;html=1;rotation=75;" parent="1" vertex="1">
          <mxGeometry x="420" y="640" width="80" height="80" as="geometry" />
        </mxCell>
        <mxCell id="6L15TeN0oQRbchtg8qIW-92" style="edgeStyle=orthogonalEdgeStyle;rounded=0;orthogonalLoop=1;jettySize=auto;html=1;exitX=0;exitY=0.5;exitDx=0;exitDy=0;entryX=0.75;entryY=0;entryDx=0;entryDy=0;endArrow=ERone;endFill=0;" parent="1" source="6L15TeN0oQRbchtg8qIW-91" target="6L15TeN0oQRbchtg8qIW-2" edge="1">
          <mxGeometry relative="1" as="geometry" />
        </mxCell>
        <mxCell id="6L15TeN0oQRbchtg8qIW-91" value="Respond" style="rhombus;whiteSpace=wrap;html=1;rotation=-75;" parent="1" vertex="1">
          <mxGeometry x="420" y="-320" width="80" height="80" as="geometry" />
        </mxCell>
        <mxCell id="6L15TeN0oQRbchtg8qIW-98" value="&lt;u&gt;id&lt;/u&gt;" style="ellipse;whiteSpace=wrap;html=1;" parent="1" vertex="1">
          <mxGeometry x="1000" y="38" width="60" height="40" as="geometry" />
        </mxCell>
        <mxCell id="6L15TeN0oQRbchtg8qIW-99" value="username" style="ellipse;whiteSpace=wrap;html=1;" parent="1" vertex="1">
          <mxGeometry x="1060" y="48" width="60" height="40" as="geometry" />
        </mxCell>
        <mxCell id="6L15TeN0oQRbchtg8qIW-100" value="password" style="ellipse;whiteSpace=wrap;html=1;" parent="1" vertex="1">
          <mxGeometry x="1120" y="58" width="60" height="40" as="geometry" />
        </mxCell>
        <mxCell id="6L15TeN0oQRbchtg8qIW-101" value="street" style="ellipse;whiteSpace=wrap;html=1;" parent="1" vertex="1">
          <mxGeometry x="1180" y="78" width="60" height="40" as="geometry" />
        </mxCell>
        <mxCell id="6L15TeN0oQRbchtg8qIW-102" value="city" style="ellipse;whiteSpace=wrap;html=1;" parent="1" vertex="1">
          <mxGeometry x="1240" y="98" width="60" height="40" as="geometry" />
        </mxCell>
        <mxCell id="6L15TeN0oQRbchtg8qIW-103" value="state" style="ellipse;whiteSpace=wrap;html=1;" parent="1" vertex="1">
          <mxGeometry x="1300" y="118" width="60" height="40" as="geometry" />
        </mxCell>
        <mxCell id="6L15TeN0oQRbchtg8qIW-104" value="zipCode" style="ellipse;whiteSpace=wrap;html=1;" parent="1" vertex="1">
          <mxGeometry x="1360" y="138" width="60" height="40" as="geometry" />
        </mxCell>
        <mxCell id="6L15TeN0oQRbchtg8qIW-105" value="country" style="ellipse;whiteSpace=wrap;html=1;" parent="1" vertex="1">
          <mxGeometry x="1420" y="148" width="60" height="40" as="geometry" />
        </mxCell>
        <mxCell id="6L15TeN0oQRbchtg8qIW-106" value="&lt;font style=&quot;font-size: 10px;&quot;&gt;cardNumber&lt;/font&gt;" style="ellipse;whiteSpace=wrap;html=1;" parent="1" vertex="1">
          <mxGeometry x="1480" y="190" width="60" height="40" as="geometry" />
        </mxCell>
        <mxCell id="6L15TeN0oQRbchtg8qIW-107" value="firstname" style="ellipse;whiteSpace=wrap;html=1;" parent="1" vertex="1">
          <mxGeometry x="1420" y="238" width="60" height="40" as="geometry" />
        </mxCell>
        <mxCell id="6L15TeN0oQRbchtg8qIW-108" value="lastname" style="ellipse;whiteSpace=wrap;html=1;" parent="1" vertex="1">
          <mxGeometry x="1360" y="268" width="60" height="40" as="geometry" />
        </mxCell>
        <mxCell id="6L15TeN0oQRbchtg8qIW-109" value="phone Number" style="ellipse;whiteSpace=wrap;html=1;" parent="1" vertex="1">
          <mxGeometry x="1300" y="288" width="60" height="40" as="geometry" />
        </mxCell>
        <mxCell id="6L15TeN0oQRbchtg8qIW-110" value="email" style="ellipse;whiteSpace=wrap;html=1;" parent="1" vertex="1">
          <mxGeometry x="1240" y="312" width="60" height="40" as="geometry" />
        </mxCell>
        <mxCell id="6L15TeN0oQRbchtg8qIW-111" value="&lt;font style=&quot;font-size: 10px;&quot;&gt;registerTime&lt;/font&gt;" style="ellipse;whiteSpace=wrap;html=1;" parent="1" vertex="1">
          <mxGeometry x="1180" y="337" width="60" height="40" as="geometry" />
        </mxCell>
        <mxCell id="6L15TeN0oQRbchtg8qIW-112" value="loginTime" style="ellipse;whiteSpace=wrap;html=1;" parent="1" vertex="1">
          <mxGeometry x="1120" y="362" width="60" height="40" as="geometry" />
        </mxCell>
        <mxCell id="6L15TeN0oQRbchtg8qIW-113" value="admin" style="ellipse;whiteSpace=wrap;html=1;" parent="1" vertex="1">
          <mxGeometry x="1060" y="382" width="60" height="40" as="geometry" />
        </mxCell>
        <mxCell id="6L15TeN0oQRbchtg8qIW-133" value="&lt;u&gt;id&lt;/u&gt;" style="ellipse;whiteSpace=wrap;html=1;" parent="1" vertex="1">
          <mxGeometry x="130" y="40" width="60" height="40" as="geometry" />
        </mxCell>
        <mxCell id="6L15TeN0oQRbchtg8qIW-135" value="price" style="ellipse;whiteSpace=wrap;html=1;" parent="1" vertex="1">
          <mxGeometry x="40" y="78" width="60" height="40" as="geometry" />
        </mxCell>
        <mxCell id="6L15TeN0oQRbchtg8qIW-136" value="startDate" style="ellipse;whiteSpace=wrap;html=1;" parent="1" vertex="1">
          <mxGeometry x="-30" y="140" width="60" height="40" as="geometry" />
        </mxCell>
        <mxCell id="6L15TeN0oQRbchtg8qIW-137" value="endDate" style="ellipse;whiteSpace=wrap;html=1;" parent="1" vertex="1">
          <mxGeometry x="-30" y="240" width="60" height="40" as="geometry" />
        </mxCell>
        <mxCell id="6L15TeN0oQRbchtg8qIW-138" value="status" style="ellipse;whiteSpace=wrap;html=1;" parent="1" vertex="1">
          <mxGeometry x="40" y="268" width="60" height="40" as="geometry" />
        </mxCell>
        <mxCell id="6L15TeN0oQRbchtg8qIW-139" value="createdAt" style="ellipse;whiteSpace=wrap;html=1;" parent="1" vertex="1">
          <mxGeometry x="130" y="297" width="60" height="40" as="geometry" />
        </mxCell>
        <mxCell id="6L15TeN0oQRbchtg8qIW-146" value="&lt;u&gt;id&lt;/u&gt;" style="ellipse;whiteSpace=wrap;html=1;" parent="1" vertex="1">
          <mxGeometry x="220" y="-360" width="60" height="40" as="geometry" />
        </mxCell>
        <mxCell id="6L15TeN0oQRbchtg8qIW-147" value="street" style="ellipse;whiteSpace=wrap;html=1;" parent="1" vertex="1">
          <mxGeometry x="160" y="-340" width="60" height="40" as="geometry" />
        </mxCell>
        <mxCell id="6L15TeN0oQRbchtg8qIW-148" value="city" style="ellipse;whiteSpace=wrap;html=1;" parent="1" vertex="1">
          <mxGeometry x="100" y="-320" width="60" height="40" as="geometry" />
        </mxCell>
        <mxCell id="6L15TeN0oQRbchtg8qIW-149" value="state" style="ellipse;whiteSpace=wrap;html=1;" parent="1" vertex="1">
          <mxGeometry x="40" y="-300" width="60" height="40" as="geometry" />
        </mxCell>
        <mxCell id="6L15TeN0oQRbchtg8qIW-150" value="zipCode" style="ellipse;whiteSpace=wrap;html=1;" parent="1" vertex="1">
          <mxGeometry x="-20" y="-280" width="60" height="40" as="geometry" />
        </mxCell>
        <mxCell id="6L15TeN0oQRbchtg8qIW-151" value="country" style="ellipse;whiteSpace=wrap;html=1;" parent="1" vertex="1">
          <mxGeometry x="-80" y="-260" width="60" height="40" as="geometry" />
        </mxCell>
        <mxCell id="6L15TeN0oQRbchtg8qIW-152" value="driveway&lt;div&gt;Size&lt;/div&gt;" style="ellipse;whiteSpace=wrap;html=1;" parent="1" vertex="1">
          <mxGeometry x="-130" y="-230" width="60" height="40" as="geometry" />
        </mxCell>
        <mxCell id="6L15TeN0oQRbchtg8qIW-153" value="proposed&lt;div&gt;Price&lt;/div&gt;" style="ellipse;whiteSpace=wrap;html=1;" parent="1" vertex="1">
          <mxGeometry x="-200" y="-190" width="60" height="40" as="geometry" />
        </mxCell>
        <mxCell id="6L15TeN0oQRbchtg8qIW-154" value="image&lt;div&gt;Url1&lt;/div&gt;" style="ellipse;whiteSpace=wrap;html=1;" parent="1" vertex="1">
          <mxGeometry x="-130" y="-150" width="60" height="40" as="geometry" />
        </mxCell>
        <mxCell id="6L15TeN0oQRbchtg8qIW-155" value="image&lt;div&gt;Url2&lt;/div&gt;" style="ellipse;whiteSpace=wrap;html=1;" parent="1" vertex="1">
          <mxGeometry x="-80" y="-120" width="60" height="40" as="geometry" />
        </mxCell>
        <mxCell id="6L15TeN0oQRbchtg8qIW-156" value="image&lt;div&gt;Url3&lt;/div&gt;" style="ellipse;whiteSpace=wrap;html=1;" parent="1" vertex="1">
          <mxGeometry x="-20" y="-90" width="60" height="40" as="geometry" />
        </mxCell>
        <mxCell id="6L15TeN0oQRbchtg8qIW-157" value="image&lt;div&gt;Url4&lt;/div&gt;" style="ellipse;whiteSpace=wrap;html=1;" parent="1" vertex="1">
          <mxGeometry x="40" y="-60" width="60" height="40" as="geometry" />
        </mxCell>
        <mxCell id="6L15TeN0oQRbchtg8qIW-158" value="image&lt;div&gt;Url5&lt;/div&gt;" style="ellipse;whiteSpace=wrap;html=1;" parent="1" vertex="1">
          <mxGeometry x="100" y="-40" width="60" height="40" as="geometry" />
        </mxCell>
        <mxCell id="6L15TeN0oQRbchtg8qIW-159" value="note" style="ellipse;whiteSpace=wrap;html=1;" parent="1" vertex="1">
          <mxGeometry x="160" y="-20" width="60" height="40" as="geometry" />
        </mxCell>
        <mxCell id="6L15TeN0oQRbchtg8qIW-160" value="status" style="ellipse;whiteSpace=wrap;html=1;" parent="1" vertex="1">
          <mxGeometry x="220" y="8" width="60" height="40" as="geometry" />
        </mxCell>
        <mxCell id="6L15TeN0oQRbchtg8qIW-161" value="createdAt" style="ellipse;whiteSpace=wrap;html=1;" parent="1" vertex="1">
          <mxGeometry x="280" y="30" width="60" height="40" as="geometry" />
        </mxCell>
        <mxCell id="6L15TeN0oQRbchtg8qIW-180" value="&lt;u&gt;id&lt;/u&gt;" style="ellipse;whiteSpace=wrap;html=1;" parent="1" vertex="1">
          <mxGeometry x="280" y="-520" width="60" height="40" as="geometry" />
        </mxCell>
        <mxCell id="6L15TeN0oQRbchtg8qIW-181" value="rejected" style="ellipse;whiteSpace=wrap;html=1;" parent="1" vertex="1">
          <mxGeometry x="330" y="-550" width="60" height="40" as="geometry" />
        </mxCell>
        <mxCell id="6L15TeN0oQRbchtg8qIW-182" value="proposed&lt;div&gt;Price&lt;/div&gt;" style="ellipse;whiteSpace=wrap;html=1;" parent="1" vertex="1">
          <mxGeometry x="380" y="-580" width="60" height="40" as="geometry" />
        </mxCell>
        <mxCell id="6L15TeN0oQRbchtg8qIW-183" value="startDate" style="ellipse;whiteSpace=wrap;html=1;" parent="1" vertex="1">
          <mxGeometry x="440" y="-600" width="60" height="40" as="geometry" />
        </mxCell>
        <mxCell id="6L15TeN0oQRbchtg8qIW-184" value="endDate" style="ellipse;whiteSpace=wrap;html=1;" parent="1" vertex="1">
          <mxGeometry x="500" y="-620" width="60" height="40" as="geometry" />
        </mxCell>
        <mxCell id="6L15TeN0oQRbchtg8qIW-185" value="note" style="ellipse;whiteSpace=wrap;html=1;" parent="1" vertex="1">
          <mxGeometry x="550" y="-650" width="60" height="40" as="geometry" />
        </mxCell>
        <mxCell id="6L15TeN0oQRbchtg8qIW-186" value="createdAt" style="ellipse;whiteSpace=wrap;html=1;" parent="1" vertex="1">
          <mxGeometry x="600" y="-680" width="60" height="40" as="geometry" />
        </mxCell>
        <mxCell id="6L15TeN0oQRbchtg8qIW-197" value="&lt;u&gt;id&lt;/u&gt;" style="ellipse;whiteSpace=wrap;html=1;" parent="1" vertex="1">
          <mxGeometry x="670" y="-680" width="60" height="40" as="geometry" />
        </mxCell>
        <mxCell id="6L15TeN0oQRbchtg8qIW-198" value="rejected" style="ellipse;whiteSpace=wrap;html=1;" parent="1" vertex="1">
          <mxGeometry x="730" y="-660" width="60" height="40" as="geometry" />
        </mxCell>
        <mxCell id="6L15TeN0oQRbchtg8qIW-199" value="proposed&lt;div&gt;Price&lt;/div&gt;" style="ellipse;whiteSpace=wrap;html=1;" parent="1" vertex="1">
          <mxGeometry x="780" y="-630" width="60" height="40" as="geometry" />
        </mxCell>
        <mxCell id="6L15TeN0oQRbchtg8qIW-200" value="startDate" style="ellipse;whiteSpace=wrap;html=1;" parent="1" vertex="1">
          <mxGeometry x="840" y="-600" width="60" height="40" as="geometry" />
        </mxCell>
        <mxCell id="6L15TeN0oQRbchtg8qIW-201" value="endDate" style="ellipse;whiteSpace=wrap;html=1;" parent="1" vertex="1">
          <mxGeometry x="900" y="-570" width="60" height="40" as="geometry" />
        </mxCell>
        <mxCell id="6L15TeN0oQRbchtg8qIW-202" value="note" style="ellipse;whiteSpace=wrap;html=1;" parent="1" vertex="1">
          <mxGeometry x="950" y="-540" width="60" height="40" as="geometry" />
        </mxCell>
        <mxCell id="6L15TeN0oQRbchtg8qIW-203" value="createdAt" style="ellipse;whiteSpace=wrap;html=1;" parent="1" vertex="1">
          <mxGeometry x="1000" y="-510" width="60" height="40" as="geometry" />
        </mxCell>
        <mxCell id="6L15TeN0oQRbchtg8qIW-211" value="&lt;u&gt;id&lt;/u&gt;" style="ellipse;whiteSpace=wrap;html=1;" parent="1" vertex="1">
          <mxGeometry x="1040" y="-240" width="60" height="40" as="geometry" />
        </mxCell>
        <mxCell id="6L15TeN0oQRbchtg8qIW-212" value="accepted" style="ellipse;whiteSpace=wrap;html=1;" parent="1" vertex="1">
          <mxGeometry x="1110" y="-230" width="60" height="40" as="geometry" />
        </mxCell>
        <mxCell id="6L15TeN0oQRbchtg8qIW-213" value="note" style="ellipse;whiteSpace=wrap;html=1;" parent="1" vertex="1">
          <mxGeometry x="1110" y="-150" width="60" height="40" as="geometry" />
        </mxCell>
        <mxCell id="6L15TeN0oQRbchtg8qIW-214" value="createdAt" style="ellipse;whiteSpace=wrap;html=1;" parent="1" vertex="1">
          <mxGeometry x="1040" y="-130" width="60" height="40" as="geometry" />
        </mxCell>
        <mxCell id="6L15TeN0oQRbchtg8qIW-222" style="edgeStyle=orthogonalEdgeStyle;rounded=0;orthogonalLoop=1;jettySize=auto;html=1;exitX=1;exitY=0.5;exitDx=0;exitDy=0;entryX=0.5;entryY=1;entryDx=0;entryDy=0;endArrow=ERone;endFill=0;" parent="1" source="6L15TeN0oQRbchtg8qIW-219" target="6L15TeN0oQRbchtg8qIW-2" edge="1">
          <mxGeometry relative="1" as="geometry" />
        </mxCell>
        <mxCell id="6L15TeN0oQRbchtg8qIW-225" style="edgeStyle=orthogonalEdgeStyle;rounded=0;orthogonalLoop=1;jettySize=auto;html=1;exitX=0;exitY=0.5;exitDx=0;exitDy=0;entryX=0.5;entryY=0;entryDx=0;entryDy=0;endArrow=ERzeroToOne;endFill=0;" parent="1" source="6L15TeN0oQRbchtg8qIW-219" target="6L15TeN0oQRbchtg8qIW-10" edge="1">
          <mxGeometry relative="1" as="geometry" />
        </mxCell>
        <mxCell id="6L15TeN0oQRbchtg8qIW-219" value="Reference" style="rhombus;whiteSpace=wrap;html=1;rotation=-75;" parent="1" vertex="1">
          <mxGeometry x="360" y="28" width="80" height="80" as="geometry" />
        </mxCell>
        <mxCell id="6L15TeN0oQRbchtg8qIW-223" style="edgeStyle=orthogonalEdgeStyle;rounded=0;orthogonalLoop=1;jettySize=auto;html=1;exitX=0;exitY=0.5;exitDx=0;exitDy=0;entryX=0.5;entryY=1;entryDx=0;entryDy=0;endArrow=ERone;endFill=0;" parent="1" source="6L15TeN0oQRbchtg8qIW-220" target="6L15TeN0oQRbchtg8qIW-10" edge="1">
          <mxGeometry relative="1" as="geometry" />
        </mxCell>
        <mxCell id="CD9k-4Juetm0KsUpOOmQ-11" style="edgeStyle=orthogonalEdgeStyle;rounded=0;orthogonalLoop=1;jettySize=auto;html=1;exitX=1;exitY=0.5;exitDx=0;exitDy=0;entryX=0.5;entryY=0;entryDx=0;entryDy=0;endArrow=ERzeroToOne;endFill=0;" edge="1" parent="1" source="6L15TeN0oQRbchtg8qIW-220" target="6L15TeN0oQRbchtg8qIW-6">
          <mxGeometry relative="1" as="geometry" />
        </mxCell>
        <mxCell id="6L15TeN0oQRbchtg8qIW-220" value="Reference" style="rhombus;whiteSpace=wrap;html=1;rotation=75;" parent="1" vertex="1">
          <mxGeometry x="330" y="350" width="80" height="80" as="geometry" />
        </mxCell>
        <mxCell id="6L15TeN0oQRbchtg8qIW-229" value="&lt;u&gt;id&lt;/u&gt;" style="ellipse;whiteSpace=wrap;html=1;" parent="1" vertex="1">
          <mxGeometry x="210" y="470" width="60" height="40" as="geometry" />
        </mxCell>
        <mxCell id="6L15TeN0oQRbchtg8qIW-230" value="price" style="ellipse;whiteSpace=wrap;html=1;" parent="1" vertex="1">
          <mxGeometry x="150" y="500" width="60" height="40" as="geometry" />
        </mxCell>
        <mxCell id="6L15TeN0oQRbchtg8qIW-231" value="status" style="ellipse;whiteSpace=wrap;html=1;" parent="1" vertex="1">
          <mxGeometry x="90" y="540" width="60" height="40" as="geometry" />
        </mxCell>
        <mxCell id="6L15TeN0oQRbchtg8qIW-232" value="paidAt" style="ellipse;whiteSpace=wrap;html=1;" parent="1" vertex="1">
          <mxGeometry x="150" y="580" width="60" height="40" as="geometry" />
        </mxCell>
        <mxCell id="6L15TeN0oQRbchtg8qIW-233" value="createdAt" style="ellipse;whiteSpace=wrap;html=1;" parent="1" vertex="1">
          <mxGeometry x="210" y="610" width="60" height="40" as="geometry" />
        </mxCell>
        <mxCell id="6L15TeN0oQRbchtg8qIW-239" value="&lt;u&gt;id&lt;/u&gt;" style="ellipse;whiteSpace=wrap;html=1;" parent="1" vertex="1">
          <mxGeometry x="330" y="860" width="60" height="40" as="geometry" />
        </mxCell>
        <mxCell id="6L15TeN0oQRbchtg8qIW-240" value="disputed" style="ellipse;whiteSpace=wrap;html=1;" parent="1" vertex="1">
          <mxGeometry x="380" y="890" width="60" height="40" as="geometry" />
        </mxCell>
        <mxCell id="6L15TeN0oQRbchtg8qIW-241" value="card&lt;div&gt;Number&lt;/div&gt;" style="ellipse;whiteSpace=wrap;html=1;" parent="1" vertex="1">
          <mxGeometry x="430" y="920" width="60" height="40" as="geometry" />
        </mxCell>
        <mxCell id="6L15TeN0oQRbchtg8qIW-242" value="note" style="ellipse;whiteSpace=wrap;html=1;" parent="1" vertex="1">
          <mxGeometry x="484" y="954" width="60" height="40" as="geometry" />
        </mxCell>
        <mxCell id="6L15TeN0oQRbchtg8qIW-243" value="createdAt" style="ellipse;whiteSpace=wrap;html=1;" parent="1" vertex="1">
          <mxGeometry x="540" y="980" width="60" height="40" as="geometry" />
        </mxCell>
        <mxCell id="6L15TeN0oQRbchtg8qIW-249" value="&lt;u&gt;id&lt;/u&gt;" style="ellipse;whiteSpace=wrap;html=1;" parent="1" vertex="1">
          <mxGeometry x="700" y="980" width="60" height="40" as="geometry" />
        </mxCell>
        <mxCell id="6L15TeN0oQRbchtg8qIW-250" value="disputed" style="ellipse;whiteSpace=wrap;html=1;" parent="1" vertex="1">
          <mxGeometry x="750" y="954" width="60" height="40" as="geometry" />
        </mxCell>
        <mxCell id="6L15TeN0oQRbchtg8qIW-251" value="card&lt;div&gt;Number&lt;/div&gt;" style="ellipse;whiteSpace=wrap;html=1;" parent="1" vertex="1">
          <mxGeometry x="800" y="920" width="60" height="40" as="geometry" />
        </mxCell>
        <mxCell id="6L15TeN0oQRbchtg8qIW-252" value="note" style="ellipse;whiteSpace=wrap;html=1;" parent="1" vertex="1">
          <mxGeometry x="850" y="890" width="60" height="40" as="geometry" />
        </mxCell>
        <mxCell id="6L15TeN0oQRbchtg8qIW-253" value="createdAt" style="ellipse;whiteSpace=wrap;html=1;" parent="1" vertex="1">
          <mxGeometry x="900" y="860" width="60" height="40" as="geometry" />
        </mxCell>
        <mxCell id="6L15TeN0oQRbchtg8qIW-259" value="&lt;u&gt;id&lt;/u&gt;" style="ellipse;whiteSpace=wrap;html=1;" parent="1" vertex="1">
          <mxGeometry x="1030" y="470" width="60" height="40" as="geometry" />
        </mxCell>
        <mxCell id="6L15TeN0oQRbchtg8qIW-260" value="price" style="ellipse;whiteSpace=wrap;html=1;" parent="1" vertex="1">
          <mxGeometry x="1090" y="500" width="60" height="40" as="geometry" />
        </mxCell>
        <mxCell id="6L15TeN0oQRbchtg8qIW-261" value="note" style="ellipse;whiteSpace=wrap;html=1;" parent="1" vertex="1">
          <mxGeometry x="1090" y="580" width="60" height="40" as="geometry" />
        </mxCell>
        <mxCell id="6L15TeN0oQRbchtg8qIW-263" value="createdAt" style="ellipse;whiteSpace=wrap;html=1;" parent="1" vertex="1">
          <mxGeometry x="1030" y="610" width="60" height="40" as="geometry" />
        </mxCell>
        <mxCell id="CD9k-4Juetm0KsUpOOmQ-2" style="edgeStyle=orthogonalEdgeStyle;rounded=0;orthogonalLoop=1;jettySize=auto;html=1;exitX=1;exitY=0.5;exitDx=0;exitDy=0;entryX=0.167;entryY=0;entryDx=0;entryDy=0;entryPerimeter=0;endArrow=ERone;endFill=0;" edge="1" parent="1" source="6L15TeN0oQRbchtg8qIW-20" target="6L15TeN0oQRbchtg8qIW-1">
          <mxGeometry relative="1" as="geometry" />
        </mxCell>
        <mxCell id="CD9k-4Juetm0KsUpOOmQ-3" style="edgeStyle=orthogonalEdgeStyle;rounded=0;orthogonalLoop=1;jettySize=auto;html=1;exitX=1;exitY=0.5;exitDx=0;exitDy=0;entryX=0.333;entryY=0;entryDx=0;entryDy=0;entryPerimeter=0;endArrow=ERone;endFill=0;" edge="1" parent="1" source="6L15TeN0oQRbchtg8qIW-21" target="6L15TeN0oQRbchtg8qIW-1">
          <mxGeometry relative="1" as="geometry" />
        </mxCell>
        <mxCell id="CD9k-4Juetm0KsUpOOmQ-4" style="edgeStyle=orthogonalEdgeStyle;rounded=0;orthogonalLoop=1;jettySize=auto;html=1;exitX=0;exitY=0.5;exitDx=0;exitDy=0;entryX=0.583;entryY=0;entryDx=0;entryDy=0;entryPerimeter=0;endArrow=ERone;endFill=0;" edge="1" parent="1" source="6L15TeN0oQRbchtg8qIW-22" target="6L15TeN0oQRbchtg8qIW-1">
          <mxGeometry relative="1" as="geometry" />
        </mxCell>
        <mxCell id="CD9k-4Juetm0KsUpOOmQ-5" style="edgeStyle=orthogonalEdgeStyle;rounded=0;orthogonalLoop=1;jettySize=auto;html=1;exitX=0;exitY=0.5;exitDx=0;exitDy=0;entryX=0.833;entryY=0;entryDx=0;entryDy=0;entryPerimeter=0;endArrow=ERone;endFill=0;" edge="1" parent="1" source="6L15TeN0oQRbchtg8qIW-23" target="6L15TeN0oQRbchtg8qIW-1">
          <mxGeometry relative="1" as="geometry">
            <Array as="points">
              <mxPoint x="822" y="80" />
              <mxPoint x="700" y="80" />
            </Array>
          </mxGeometry>
        </mxCell>
        <mxCell id="CD9k-4Juetm0KsUpOOmQ-6" style="edgeStyle=orthogonalEdgeStyle;rounded=0;orthogonalLoop=1;jettySize=auto;html=1;exitX=0;exitY=0.5;exitDx=0;exitDy=0;entryX=0.833;entryY=1;entryDx=0;entryDy=0;entryPerimeter=0;endArrow=ERone;endFill=0;" edge="1" parent="1" source="6L15TeN0oQRbchtg8qIW-19" target="6L15TeN0oQRbchtg8qIW-1">
          <mxGeometry relative="1" as="geometry" />
        </mxCell>
        <mxCell id="CD9k-4Juetm0KsUpOOmQ-7" style="edgeStyle=orthogonalEdgeStyle;rounded=0;orthogonalLoop=1;jettySize=auto;html=1;exitX=0;exitY=0.5;exitDx=0;exitDy=0;entryX=0.667;entryY=1;entryDx=0;entryDy=0;entryPerimeter=0;endArrow=ERone;endFill=0;" edge="1" parent="1" source="6L15TeN0oQRbchtg8qIW-18" target="6L15TeN0oQRbchtg8qIW-1">
          <mxGeometry relative="1" as="geometry">
            <Array as="points">
              <mxPoint x="720" y="480" />
              <mxPoint x="680" y="480" />
            </Array>
          </mxGeometry>
        </mxCell>
        <mxCell id="CD9k-4Juetm0KsUpOOmQ-8" style="edgeStyle=orthogonalEdgeStyle;rounded=0;orthogonalLoop=1;jettySize=auto;html=1;exitX=1;exitY=0.5;exitDx=0;exitDy=0;entryX=0.417;entryY=1;entryDx=0;entryDy=0;entryPerimeter=0;endArrow=ERone;endFill=0;" edge="1" parent="1" source="6L15TeN0oQRbchtg8qIW-17" target="6L15TeN0oQRbchtg8qIW-1">
          <mxGeometry relative="1" as="geometry">
            <Array as="points">
              <mxPoint x="600" y="480" />
              <mxPoint x="650" y="480" />
            </Array>
          </mxGeometry>
        </mxCell>
        <mxCell id="CD9k-4Juetm0KsUpOOmQ-9" style="edgeStyle=orthogonalEdgeStyle;rounded=0;orthogonalLoop=1;jettySize=auto;html=1;exitX=1;exitY=0.5;exitDx=0;exitDy=0;entryX=0.167;entryY=1;entryDx=0;entryDy=0;entryPerimeter=0;endArrow=ERone;endFill=0;" edge="1" parent="1" source="6L15TeN0oQRbchtg8qIW-14" target="6L15TeN0oQRbchtg8qIW-1">
          <mxGeometry relative="1" as="geometry" />
        </mxCell>
        <mxCell id="CD9k-4Juetm0KsUpOOmQ-12" style="edgeStyle=orthogonalEdgeStyle;rounded=0;orthogonalLoop=1;jettySize=auto;html=1;exitX=0;exitY=0.5;exitDx=0;exitDy=0;entryX=0.833;entryY=0;entryDx=0;entryDy=0;entryPerimeter=0;endArrow=ERzeroToMany;endFill=0;" edge="1" parent="1" source="6L15TeN0oQRbchtg8qIW-14" target="6L15TeN0oQRbchtg8qIW-6">
          <mxGeometry relative="1" as="geometry">
            <Array as="points">
              <mxPoint x="502" y="510" />
              <mxPoint x="460" y="510" />
            </Array>
          </mxGeometry>
        </mxCell>
        <mxCell id="CD9k-4Juetm0KsUpOOmQ-15" style="edgeStyle=orthogonalEdgeStyle;rounded=0;orthogonalLoop=1;jettySize=auto;html=1;exitX=1;exitY=0.5;exitDx=0;exitDy=0;entryX=0.167;entryY=0;entryDx=0;entryDy=0;entryPerimeter=0;endArrow=ERzeroToMany;endFill=0;" edge="1" parent="1" source="6L15TeN0oQRbchtg8qIW-19" target="6L15TeN0oQRbchtg8qIW-9">
          <mxGeometry relative="1" as="geometry">
            <Array as="points">
              <mxPoint x="878" y="500" />
              <mxPoint x="890" y="500" />
            </Array>
          </mxGeometry>
        </mxCell>
        <mxCell id="CD9k-4Juetm0KsUpOOmQ-16" style="edgeStyle=orthogonalEdgeStyle;rounded=0;orthogonalLoop=1;jettySize=auto;html=1;exitX=1;exitY=0.5;exitDx=0;exitDy=0;entryX=0.083;entryY=1;entryDx=0;entryDy=0;entryPerimeter=0;endArrow=ERzeroToOne;endFill=0;" edge="1" parent="1" source="6L15TeN0oQRbchtg8qIW-91" target="6L15TeN0oQRbchtg8qIW-3">
          <mxGeometry relative="1" as="geometry" />
        </mxCell>
        <mxCell id="CD9k-4Juetm0KsUpOOmQ-17" style="edgeStyle=orthogonalEdgeStyle;rounded=0;orthogonalLoop=1;jettySize=auto;html=1;exitX=0;exitY=0.5;exitDx=0;exitDy=0;entryX=0.667;entryY=1;entryDx=0;entryDy=0;entryPerimeter=0;endArrow=ERzeroToMany;endFill=0;" edge="1" parent="1" source="6L15TeN0oQRbchtg8qIW-21" target="6L15TeN0oQRbchtg8qIW-3">
          <mxGeometry relative="1" as="geometry">
            <Array as="points">
              <mxPoint x="590" y="-320" />
              <mxPoint x="560" y="-320" />
            </Array>
          </mxGeometry>
        </mxCell>
        <mxCell id="CD9k-4Juetm0KsUpOOmQ-19" style="edgeStyle=orthogonalEdgeStyle;rounded=0;orthogonalLoop=1;jettySize=auto;html=1;exitX=1;exitY=0.5;exitDx=0;exitDy=0;entryX=0.167;entryY=1;entryDx=0;entryDy=0;entryPerimeter=0;endArrow=ERzeroToMany;endFill=0;" edge="1" parent="1" source="6L15TeN0oQRbchtg8qIW-23" target="6L15TeN0oQRbchtg8qIW-5">
          <mxGeometry relative="1" as="geometry">
            <Array as="points">
              <mxPoint x="890" y="-88" />
            </Array>
          </mxGeometry>
        </mxCell>
      </root>
    </mxGraphModel>
  </diagram>
</mxfile>
